# xmcd
#
# Track frame offsets:
#  150
#  9829
#  20812
#  30670
#  43294
#  55488
#  65124
#  74415
#  83897
#  92791
#  103470
#  111305
#  133021
#  145375
#  154783
#  164249
#  177104
#
# Disc length: 2501 seconds
#
# Revision: 0
# Processed by: cddbd v1.5.1PL0 Copyright (c) Steve Scherf et al.
# Submitted via: Collectorz.com_Music_Collector 6.9
#
DISCID=0309c311
DTITLE=Dave Dudley - Six Days On The Road And Other Truck Drivin' Classics
DYEAR=1900
DGENRE=Country
TTITLE0=Six Days On The Road
TTITLE1=Cowboy Boots
TTITLE2=Two Six Packs Away
TTITLE3=Mad
TTITLE4=Ther Ain't No Easy Runs
TTITLE5=Comin' Down
TTITLE6=Taxicab Driver
TTITLE7=Last Day In The Mines
TTITLE8=Lonely Corners
TTITLE9=A Travelers Prayer
TTITLE10=Above And Beyond
TTITLE11=Barbara Allen
TTITLE12=Before My Time
TTITLE13=Boo On You
TTITLE14=Fly Away Again
TTITLE15=I Feel A Cry Coming On
TTITLE16=Then I Can Go To Bed
EXTD=
EXTT0=
EXTT1=
EXTT2=
EXTT3=
EXTT4=
EXTT5=
EXTT6=
EXTT7=
EXTT8=
EXTT9=
EXTT10=
EXTT11=
EXTT12=
EXTT13=
EXTT14=
EXTT15=
EXTT16=
PLAYORDER=
